<?xml version="1.0" encoding="UTF-8" standalone="no"?>
<!DOCTYPE svg PUBLIC "-//W3C//DTD SVG 1.0//EN" "http://www.w3.org/TR/2001/PR-SVG-20010719/DTD/svg10.dtd">
<svg width="129cm" height="42cm" viewBox="-342 -202 2563 830" xmlns="http://www.w3.org/2000/svg" xmlns:xlink="http://www.w3.org/1999/xlink">
  <g>
    <rect style="fill: #e6e6fa" x="-340" y="14.8889" width="2560" height="50.2222"/>
    <rect style="fill: none; fill-opacity:0; stroke-width: 2; stroke: #000000" x="-340" y="14.8889" width="2560" height="50.2222"/>
    <text font-size="22.5778" style="fill: #000000;text-anchor:middle;font-family:sans-serif;font-style:normal;font-weight:normal" x="940" y="46.8889">
      <tspan x="940" y="46.8889">Main</tspan>
    </text>
  </g>
  <g>
    <rect style="fill: #e6e6fa" x="-340" y="60" width="2560" height="100"/>
    <rect style="fill: none; fill-opacity:0; stroke-width: 2; stroke: #000000" x="-340" y="60" width="2560" height="100"/>
    <text font-size="12.8" style="fill: #000000;text-anchor:middle;font-family:sans-serif;font-style:normal;font-weight:normal" x="940" y="113.9">
      <tspan x="940" y="113.9"></tspan>
    </text>
  </g>
  <g>
    <rect style="fill: #ffffff" x="-320" y="80" width="1000" height="60"/>
    <rect style="fill: none; fill-opacity:0; stroke-width: 2; stroke: #000000" x="-320" y="80" width="1000" height="60"/>
    <text font-size="12.8" style="fill: #000000;text-anchor:middle;font-family:sans-serif;font-style:normal;font-weight:normal" x="180" y="113.9">
      <tspan x="180" y="113.9">First part of main: operations not specific to a synchronised file/folder</tspan>
    </text>
  </g>
  <g>
    <rect style="fill: #ffffff" x="720" y="80" width="1460" height="60"/>
    <rect style="fill: none; fill-opacity:0; stroke-width: 2; stroke: #000000" x="720" y="80" width="1460" height="60"/>
    <text font-size="12.8" style="fill: #000000;text-anchor:middle;font-family:sans-serif;font-style:normal;font-weight:normal" x="1450" y="113.9">
      <tspan x="1450" y="113.9">Second part of main: loop over each file/folder in locations-list file</tspan>
    </text>
  </g>
  <g>
    <rect style="fill: #ffffff" x="380" y="340" width="102.5" height="38"/>
    <rect style="fill: none; fill-opacity:0; stroke-width: 2; stroke: #000000" x="380" y="340" width="102.5" height="38"/>
    <text font-size="12.8" style="fill: #000000;text-anchor:middle;font-family:sans-serif;font-style:normal;font-weight:normal" x="431.25" y="362.9">
      <tspan x="431.25" y="362.9">scanLocsList</tspan>
    </text>
  </g>
  <g>
    <rect style="fill: #ffffff" x="400" y="220" width="149.15" height="38"/>
    <rect style="fill: none; fill-opacity:0; stroke-width: 2; stroke: #000000" x="400" y="220" width="149.15" height="38"/>
    <text font-size="12.8" style="fill: #000000;text-anchor:middle;font-family:sans-serif;font-style:normal;font-weight:normal" x="474.575" y="242.9">
      <tspan x="474.575" y="242.9">listLocsListContents</tspan>
    </text>
  </g>
  <g>
    <rect style="fill: #ffffff" x="480" y="420" width="122.35" height="38"/>
    <rect style="fill: none; fill-opacity:0; stroke-width: 2; stroke: #000000" x="480" y="420" width="122.35" height="38"/>
    <text font-size="12.8" style="fill: #000000;text-anchor:middle;font-family:sans-serif;font-style:normal;font-weight:normal" x="541.175" y="442.9">
      <tspan x="541.175" y="442.9">analyseLocsList</tspan>
    </text>
  </g>
  <g>
    <line style="fill: none; fill-opacity:0; stroke-width: 2; stroke: #000000" x1="380.639" y1="450.025" x2="198.293" y2="141.001"/>
    <polygon style="fill: #000000" points="376.333,452.566 388.77,463.805 384.945,447.484 "/>
    <polygon style="fill: none; fill-opacity:0; stroke-width: 2; stroke: #000000" points="376.333,452.566 388.77,463.805 384.945,447.484 "/>
    <text font-size="12.7998" style="fill: #000000;text-anchor:middle;font-family:sans-serif;font-style:normal;font-weight:normal" x="306" y="312">?</text>
  </g>
  <g>
    <line style="fill: none; fill-opacity:0; stroke-width: 2; stroke: #000000" x1="413.317" y1="212.174" x2="250.785" y2="140.998"/>
    <polygon style="fill: #000000" points="411.311,216.754 427.973,218.592 415.323,207.594 "/>
    <polygon style="fill: none; fill-opacity:0; stroke-width: 2; stroke: #000000" points="411.311,216.754 427.973,218.592 415.323,207.594 "/>
    <text font-size="12.7998" style="fill: #000000;text-anchor:middle;font-family:sans-serif;font-style:normal;font-weight:normal" x="377" y="194">?</text>
  </g>
  <g>
    <line style="fill: none; fill-opacity:0; stroke-width: 2; stroke: #000000" x1="399.025" y1="327.064" x2="211.222" y2="140.943"/>
    <polygon style="fill: #000000" points="395.505,330.615 410.389,338.326 402.545,323.512 "/>
    <polygon style="fill: none; fill-opacity:0; stroke-width: 2; stroke: #000000" points="395.505,330.615 410.389,338.326 402.545,323.512 "/>
    <text font-size="12.7998" style="fill: #000000;text-anchor:middle;font-family:sans-serif;font-style:normal;font-weight:normal" x="330" y="251">?</text>
  </g>
  <g>
    <line style="fill: none; fill-opacity:0; stroke-width: 2; stroke: #000000" x1="444.242" y1="323.015" x2="467.356" y2="258.995"/>
    <polygon style="fill: #000000" points="439.539,321.317 438.809,338.064 448.945,324.713 "/>
    <polygon style="fill: none; fill-opacity:0; stroke-width: 2; stroke: #000000" points="439.539,321.317 438.809,338.064 448.945,324.713 "/>
  </g>
  <g>
    <line style="fill: none; fill-opacity:0; stroke-width: 2; stroke: #000000" x1="499.935" y1="408.987" x2="458.745" y2="379.01"/>
    <polygon style="fill: #000000" points="496.993,413.03 512.872,418.402 502.877,404.944 "/>
    <polygon style="fill: none; fill-opacity:0; stroke-width: 2; stroke: #000000" points="496.993,413.03 512.872,418.402 502.877,404.944 "/>
  </g>
  <g>
    <line style="fill: none; fill-opacity:0; stroke-width: 2; stroke: #000000" x1="419.87" y1="443.583" x2="428.558" y2="379.009"/>
    <polygon style="fill: #000000" points="414.915,442.916 417.737,459.44 424.826,444.25 "/>
    <polygon style="fill: none; fill-opacity:0; stroke-width: 2; stroke: #000000" points="414.915,442.916 417.737,459.44 424.826,444.25 "/>
    <text font-size="12.7998" style="fill: #000000;text-anchor:middle;font-family:sans-serif;font-style:normal;font-weight:normal" x="420" y="420">?</text>
  </g>
  <g>
    <polygon style="fill: #ffffff" points="995.823,180 1151.65,222.497 995.823,264.995 840,222.497 "/>
    <polygon style="fill: none; fill-opacity:0; stroke-width: 2; stroke: #000000" points="995.823,180 1151.65,222.497 995.823,264.995 840,222.497 "/>
    <text font-size="12.8" style="fill: #000000;text-anchor:middle;font-family:sans-serif;font-style:normal;font-weight:normal" x="995.823" y="226.397">
      <tspan x="995.823" y="226.397">eraseitemFromStatusDialog</tspan>
    </text>
  </g>
  <g>
    <polygon style="fill: #ffffff" points="411.88,460 583.761,502.97 411.88,545.94 240,502.97 "/>
    <polygon style="fill: none; fill-opacity:0; stroke-width: 2; stroke: #000000" points="411.88,460 583.761,502.97 411.88,545.94 240,502.97 "/>
    <text font-size="12.8" style="fill: #000000;text-anchor:middle;font-family:sans-serif;font-style:normal;font-weight:normal" x="411.88" y="506.87">
      <tspan x="411.88" y="506.87">xdgOpenLocsListDialogAndExit</tspan>
    </text>
  </g>
  <g>
    <rect style="fill: #ffffff" x="940" y="320" width="159.1" height="38"/>
    <rect style="fill: none; fill-opacity:0; stroke-width: 2; stroke: #000000" x="940" y="320" width="159.1" height="38"/>
    <text font-size="12.8" style="fill: #000000;text-anchor:middle;font-family:sans-serif;font-style:normal;font-weight:normal" x="1019.55" y="342.9">
      <tspan x="1019.55" y="342.9">eraseItemFromStatus</tspan>
    </text>
  </g>
  <g>
    <ellipse style="fill: #ffffff" cx="834.135" cy="363.534" rx="94.1346" ry="23.5336"/>
    <ellipse style="fill: none; fill-opacity:0; stroke-width: 2; stroke: #000000" cx="834.135" cy="363.534" rx="94.1346" ry="23.5336"/>
    <text font-size="12.8" style="fill: #000000;text-anchor:middle;font-family:sans-serif;font-style:normal;font-weight:normal" x="834.135" y="367.434">
      <tspan x="834.135" y="367.434">cp</tspan>
    </text>
  </g>
  <g>
    <ellipse style="fill: #ffffff" cx="1010.44" cy="457.61" rx="70.4398" ry="17.6099"/>
    <ellipse style="fill: none; fill-opacity:0; stroke-width: 2; stroke: #000000" cx="1010.44" cy="457.61" rx="70.4398" ry="17.6099"/>
    <text font-size="12.8" style="fill: #000000;text-anchor:middle;font-family:sans-serif;font-style:normal;font-weight:normal" x="1010.44" y="461.51">
      <tspan x="1010.44" y="461.51">sed, mv</tspan>
    </text>
  </g>
  <g>
    <line style="fill: none; fill-opacity:0; stroke-width: 2; stroke: #000000" x1="873.636" y1="329.078" x2="957.839" y2="255.63"/>
    <polygon style="fill: #000000" points="870.349,325.31 861.578,339.595 876.922,332.846 "/>
    <polygon style="fill: none; fill-opacity:0; stroke-width: 2; stroke: #000000" points="870.349,325.31 861.578,339.595 876.922,332.846 "/>
    <text font-size="12.7998" style="fill: #000000;text-anchor:middle;font-family:sans-serif;font-style:normal;font-weight:normal" x="935.886" y="303.016">? (getPretend)</text>
  </g>
  <g>
    <line style="fill: none; fill-opacity:0; stroke-width: 2; stroke: #000000" x1="1012.08" y1="302.339" x2="1004.21" y2="263.697"/>
    <polygon style="fill: #000000" points="1007.18,303.337 1015.28,318.018 1016.98,301.342 "/>
    <polygon style="fill: none; fill-opacity:0; stroke-width: 2; stroke: #000000" points="1007.18,303.337 1015.28,318.018 1016.98,301.342 "/>
    <text font-size="12.7998" style="fill: #000000;text-anchor:middle;font-family:sans-serif;font-style:normal;font-weight:normal" x="1009.85" y="301.348">?</text>
  </g>
  <g>
    <line style="fill: none; fill-opacity:0; stroke-width: 2; stroke: #000000" x1="1013.17" y1="422.055" x2="1018.01" y2="358.995"/>
    <polygon style="fill: #000000" points="1008.19,421.672 1011.95,438.008 1018.16,422.438 "/>
    <polygon style="fill: none; fill-opacity:0; stroke-width: 2; stroke: #000000" points="1008.19,421.672 1011.95,438.008 1018.16,422.438 "/>
    <text font-size="12.7998" style="fill: #000000;text-anchor:middle;font-family:sans-serif;font-style:normal;font-weight:normal" x="1054.59" y="396.124">(getPretend)</text>
  </g>
  <g>
    <line style="fill: none; fill-opacity:0; stroke-width: 2; stroke: #000000" x1="1095.82" y1="197.729" x2="1324.87" y2="140.994"/>
    <polygon style="fill: #000000" points="1094.62,192.875 1080.29,201.576 1097.02,202.582 "/>
    <polygon style="fill: none; fill-opacity:0; stroke-width: 2; stroke: #000000" points="1094.62,192.875 1080.29,201.576 1097.02,202.582 "/>
    <text font-size="12.7998" style="fill: #000000;text-anchor:middle;font-family:sans-serif;font-style:normal;font-weight:normal" x="1202.09" y="181.405">?</text>
  </g>
  <g>
    <polygon style="fill: #ffffff" points="-129.893,200 20.2132,245.053 -129.893,290.107 -280,245.053 "/>
    <polygon style="fill: none; fill-opacity:0; stroke-width: 2; stroke: #000000" points="-129.893,200 20.2132,245.053 -129.893,290.107 -280,245.053 "/>
    <text font-size="12.8" style="fill: #000000;text-anchor:middle;font-family:sans-serif;font-style:normal;font-weight:normal" x="-129.893" y="248.953">
      <tspan x="-129.893" y="248.953">noSyncStatusFileDialog</tspan>
    </text>
  </g>
  <g>
    <ellipse style="fill: #ffffff" cx="-218.202" cy="340.449" rx="81.7975" ry="20.4494"/>
    <ellipse style="fill: none; fill-opacity:0; stroke-width: 2; stroke: #000000" cx="-218.202" cy="340.449" rx="81.7975" ry="20.4494"/>
    <text font-size="12.8" style="fill: #000000;text-anchor:middle;font-family:sans-serif;font-style:normal;font-weight:normal" x="-218.202" y="344.349">
      <tspan x="-218.202" y="344.349">touch</tspan>
    </text>
  </g>
  <g>
    <line style="fill: none; fill-opacity:0; stroke-width: 2; stroke: #000000" x1="-187.541" y1="307.327" x2="-163.225" y2="281.06"/>
    <polygon style="fill: #000000" points="-191.21,303.931 -198.41,319.069 -183.872,310.724 "/>
    <polygon style="fill: none; fill-opacity:0; stroke-width: 2; stroke: #000000" points="-191.21,303.931 -198.41,319.069 -183.872,310.724 "/>
    <text font-size="12.7998" style="fill: #000000;text-anchor:middle;font-family:sans-serif;font-style:normal;font-weight:normal" x="-140" y="300">? (getPretend)</text>
  </g>
  <g>
    <rect style="fill: #ffffff" x="100" y="280" width="164.7" height="38"/>
    <rect style="fill: none; fill-opacity:0; stroke-width: 2; stroke: #000000" x="100" y="280" width="164.7" height="38"/>
    <text font-size="12.8" style="fill: #000000;text-anchor:middle;font-family:sans-serif;font-style:normal;font-weight:normal" x="182.35" y="302.9">
      <tspan x="182.35" y="302.9">addLocationToLocsList</tspan>
    </text>
  </g>
  <g>
    <ellipse style="fill: #ffffff" cx="178.971" cy="384.743" rx="98.9712" ry="24.7428"/>
    <ellipse style="fill: none; fill-opacity:0; stroke-width: 2; stroke: #000000" cx="178.971" cy="384.743" rx="98.9712" ry="24.7428"/>
    <text font-size="12.8" style="fill: #000000;text-anchor:middle;font-family:sans-serif;font-style:normal;font-weight:normal" x="178.971" y="388.643">
      <tspan x="178.971" y="388.643">echo ... &gt; $LOCSLIST</tspan>
    </text>
  </g>
  <g>
    <polygon style="fill: #ffffff" points="-83.0091,360 73.9819,407.12 -83.0091,454.239 -240,407.12 "/>
    <polygon style="fill: none; fill-opacity:0; stroke-width: 2; stroke: #000000" points="-83.0091,360 73.9819,407.12 -83.0091,454.239 -240,407.12 "/>
    <text font-size="12.8" style="fill: #000000;text-anchor:middle;font-family:sans-serif;font-style:normal;font-weight:normal" x="-83.0091" y="411.02">
      <tspan x="-83.0091" y="411.02">createLocsListTemplateDialog</tspan>
    </text>
  </g>
  <g>
    <rect style="fill: #ffffff" x="-180" y="500" width="171.95" height="38"/>
    <rect style="fill: none; fill-opacity:0; stroke-width: 2; stroke: #000000" x="-180" y="500" width="171.95" height="38"/>
    <text font-size="12.8" style="fill: #000000;text-anchor:middle;font-family:sans-serif;font-style:normal;font-weight:normal" x="-94.025" y="522.9">
      <tspan x="-94.025" y="522.9">createLocsListTemplate</tspan>
    </text>
  </g>
  <g>
    <ellipse style="fill: #ffffff" cx="-85.2874" cy="603.678" rx="94.7126" ry="23.6781"/>
    <ellipse style="fill: none; fill-opacity:0; stroke-width: 2; stroke: #000000" cx="-85.2874" cy="603.678" rx="94.7126" ry="23.6781"/>
    <text font-size="12.8" style="fill: #000000;text-anchor:middle;font-family:sans-serif;font-style:normal;font-weight:normal" x="-85.2874" y="607.578">
      <tspan x="-85.2874" y="607.578">cat ... &gt; $LOCSLIST</tspan>
    </text>
  </g>
  <g>
    <line style="fill: none; fill-opacity:0; stroke-width: 2; stroke: #000000" x1="-51.7308" y1="210.99" x2="108.863" y2="141.002"/>
    <polygon style="fill: #000000" points="-53.7284,206.406 -66.3984,217.382 -49.7332,215.573 "/>
    <polygon style="fill: none; fill-opacity:0; stroke-width: 2; stroke: #000000" points="-53.7284,206.406 -66.3984,217.382 -49.7332,215.573 "/>
    <text font-size="12.7998" style="fill: #000000;text-anchor:middle;font-family:sans-serif;font-style:normal;font-weight:normal" x="16" y="201">?</text>
  </g>
  <g>
    <line style="fill: none; fill-opacity:0; stroke-width: 2; stroke: #000000" x1="-38.0865" y1="356.371" x2="152.566" y2="140.992"/>
    <polygon style="fill: #000000" points="-41.8304,353.057 -48.6915,368.351 -34.3426,359.685 "/>
    <polygon style="fill: none; fill-opacity:0; stroke-width: 2; stroke: #000000" points="-41.8304,353.057 -48.6915,368.351 -34.3426,359.685 "/>
    <text font-size="12.7998" style="fill: #000000;text-anchor:middle;font-family:sans-serif;font-style:normal;font-weight:normal" x="59" y="269">?</text>
  </g>
  <g>
    <line style="fill: none; fill-opacity:0; stroke-width: 2; stroke: #000000" x1="181.89" y1="262.01" x2="180.376" y2="140.27"/>
    <polygon style="fill: #000000" points="176.89,262.072 182.089,278.009 186.89,261.948 "/>
    <polygon style="fill: none; fill-opacity:0; stroke-width: 2; stroke: #000000" points="176.89,262.072 182.089,278.009 186.89,261.948 "/>
    <text font-size="12.7998" style="fill: #000000;text-anchor:middle;font-family:sans-serif;font-style:normal;font-weight:normal" x="195" y="231">?</text>
  </g>
  <g>
    <line style="fill: none; fill-opacity:0; stroke-width: 2; stroke: #000000" x1="-90.3899" y1="482.081" x2="-87.6114" y2="453.862"/>
    <polygon style="fill: #000000" points="-95.3658,481.591 -91.9577,498.004 -85.4139,482.571 "/>
    <polygon style="fill: none; fill-opacity:0; stroke-width: 2; stroke: #000000" points="-95.3658,481.591 -91.9577,498.004 -85.4139,482.571 "/>
    <text font-size="12.7998" style="fill: #000000;text-anchor:middle;font-family:sans-serif;font-style:normal;font-weight:normal" x="-80" y="480">?</text>
  </g>
  <g>
    <line style="fill: none; fill-opacity:0; stroke-width: 2; stroke: #000000" x1="-89.5772" y1="562.105" x2="-91.9686" y2="538.929"/>
    <polygon style="fill: #000000" points="-94.5508,562.618 -87.935,578.02 -84.6036,561.591 "/>
    <polygon style="fill: none; fill-opacity:0; stroke-width: 2; stroke: #000000" points="-94.5508,562.618 -87.935,578.02 -84.6036,561.591 "/>
    <text font-size="12.7998" style="fill: #000000;text-anchor:middle;font-family:sans-serif;font-style:normal;font-weight:normal" x="-40" y="560">(getPretend)</text>
  </g>
  <g>
    <line style="fill: none; fill-opacity:0; stroke-width: 2; stroke: #000000" x1="180.654" y1="342.029" x2="181.563" y2="318.97"/>
    <polygon style="fill: #000000" points="175.658,341.832 180.024,358.017 185.651,342.226 "/>
    <polygon style="fill: none; fill-opacity:0; stroke-width: 2; stroke: #000000" points="175.658,341.832 180.024,358.017 185.651,342.226 "/>
    <text font-size="12.7998" style="fill: #000000;text-anchor:middle;font-family:sans-serif;font-style:normal;font-weight:normal" x="180.774" y="348.994">(getPermission) (getPretend)</text>
  </g>
  <g>
    <polygon style="fill: #ffffff" points="1258.98,220 1397.96,254.745 1258.98,289.49 1120,254.745 "/>
    <polygon style="fill: none; fill-opacity:0; stroke-width: 2; stroke: #000000" points="1258.98,220 1397.96,254.745 1258.98,289.49 1120,254.745 "/>
    <text font-size="12.8" style="fill: #000000;text-anchor:middle;font-family:sans-serif;font-style:normal;font-weight:normal" x="1258.98" y="258.645">
      <tspan x="1258.98" y="258.645">chooseVersionDialog</tspan>
    </text>
  </g>
  <g>
    <rect style="fill: #ffffff" x="1200" y="340" width="63.45" height="38"/>
    <rect style="fill: none; fill-opacity:0; stroke-width: 2; stroke: #000000" x="1200" y="340" width="63.45" height="38"/>
    <text font-size="12.8" style="fill: #000000;text-anchor:middle;font-family:sans-serif;font-style:normal;font-weight:normal" x="1231.72" y="362.9">
      <tspan x="1231.72" y="362.9">merge</tspan>
    </text>
  </g>
  <g>
    <rect style="fill: #ffffff" x="1120" y="440" width="150.35" height="38"/>
    <rect style="fill: none; fill-opacity:0; stroke-width: 2; stroke: #000000" x="1120" y="440" width="150.35" height="38"/>
    <text font-size="12.8" style="fill: #000000;text-anchor:middle;font-family:sans-serif;font-style:normal;font-weight:normal" x="1195.17" y="462.9">
      <tspan x="1195.17" y="462.9">mergeSourceToDest</tspan>
    </text>
  </g>
  <g>
    <ellipse style="fill: #ffffff" cx="1177.74" cy="559.434" rx="77.7377" ry="19.4344"/>
    <ellipse style="fill: none; fill-opacity:0; stroke-width: 2; stroke: #000000" cx="1177.74" cy="559.434" rx="77.7377" ry="19.4344"/>
    <text font-size="12.8" style="fill: #000000;text-anchor:middle;font-family:sans-serif;font-style:normal;font-weight:normal" x="1177.74" y="563.334">
      <tspan x="1177.74" y="563.334">rsync, touch</tspan>
    </text>
  </g>
  <g>
    <line style="fill: none; fill-opacity:0; stroke-width: 2; stroke: #000000" x1="1308" y1="217.603" x2="1409.09" y2="141"/>
    <polygon style="fill: #000000" points="1304.98,213.618 1295.24,227.266 1311.02,221.588 "/>
    <polygon style="fill: none; fill-opacity:0; stroke-width: 2; stroke: #000000" points="1304.98,213.618 1295.24,227.266 1311.02,221.588 "/>
    <text font-size="12.7998" style="fill: #000000;text-anchor:middle;font-family:sans-serif;font-style:normal;font-weight:normal" x="1332" y="196">?</text>
  </g>
  <g>
    <line style="fill: none; fill-opacity:0; stroke-width: 2; stroke: #000000" x1="1241.25" y1="322.572" x2="1250.21" y2="288.298"/>
    <polygon style="fill: #000000" points="1236.41,321.308 1237.2,338.052 1246.09,323.837 "/>
    <polygon style="fill: none; fill-opacity:0; stroke-width: 2; stroke: #000000" points="1236.41,321.308 1237.2,338.052 1246.09,323.837 "/>
    <text font-size="12.7998" style="fill: #000000;text-anchor:middle;font-family:sans-serif;font-style:normal;font-weight:normal" x="1200.08" y="309.548">? (getPermission)</text>
  </g>
  <g>
    <line style="fill: none; fill-opacity:0; stroke-width: 2; stroke: #000000" x1="1208.31" y1="423.062" x2="1224.43" y2="378.971"/>
    <polygon style="fill: #000000" points="1203.61,421.346 1202.82,438.09 1213.01,424.779 "/>
    <polygon style="fill: none; fill-opacity:0; stroke-width: 2; stroke: #000000" points="1203.61,421.346 1202.82,438.09 1213.01,424.779 "/>
  </g>
  <g>
    <line style="fill: none; fill-opacity:0; stroke-width: 2; stroke: #000000" x1="1184.19" y1="522.278" x2="1191.74" y2="478.812"/>
    <polygon style="fill: #000000" points="1179.26,521.423 1181.45,538.042 1189.12,523.133 "/>
    <polygon style="fill: none; fill-opacity:0; stroke-width: 2; stroke: #000000" points="1179.26,521.423 1181.45,538.042 1189.12,523.133 "/>
    <text font-size="12.7998" style="fill: #000000;text-anchor:middle;font-family:sans-serif;font-style:normal;font-weight:normal" x="1220.02" y="524.384">(getPretend)</text>
  </g>
  <g>
    <rect style="fill: #ffffff" x="1400" y="340" width="98.5" height="38"/>
    <rect style="fill: none; fill-opacity:0; stroke-width: 2; stroke: #000000" x="1400" y="340" width="98.5" height="38"/>
    <text font-size="12.8" style="fill: #000000;text-anchor:middle;font-family:sans-serif;font-style:normal;font-weight:normal" x="1449.25" y="362.9">
      <tspan x="1449.25" y="362.9">synchronise</tspan>
    </text>
  </g>
  <g>
    <rect style="fill: #ffffff" x="1300" y="440" width="138.3" height="38"/>
    <rect style="fill: none; fill-opacity:0; stroke-width: 2; stroke: #000000" x="1300" y="440" width="138.3" height="38"/>
    <text font-size="12.8" style="fill: #000000;text-anchor:middle;font-family:sans-serif;font-style:normal;font-weight:normal" x="1369.15" y="462.9">
      <tspan x="1369.15" y="462.9">syncSourceToDest</tspan>
    </text>
  </g>
  <g>
    <rect style="fill: #ffffff" x="1480" y="440" width="146.05" height="38"/>
    <rect style="fill: none; fill-opacity:0; stroke-width: 2; stroke: #000000" x="1480" y="440" width="146.05" height="38"/>
    <text font-size="12.8" style="fill: #000000;text-anchor:middle;font-family:sans-serif;font-style:normal;font-weight:normal" x="1553.03" y="462.9">
      <tspan x="1553.03" y="462.9">removeOldBackups</tspan>
    </text>
  </g>
  <g>
    <ellipse style="fill: #ffffff" cx="1358.15" cy="559.536" rx="78.1451" ry="19.5363"/>
    <ellipse style="fill: none; fill-opacity:0; stroke-width: 2; stroke: #000000" cx="1358.15" cy="559.536" rx="78.1451" ry="19.5363"/>
    <text font-size="12.8" style="fill: #000000;text-anchor:middle;font-family:sans-serif;font-style:normal;font-weight:normal" x="1358.15" y="563.436">
      <tspan x="1358.15" y="563.436">rsync, touch</tspan>
    </text>
  </g>
  <g>
    <ellipse style="fill: #ffffff" cx="1558.35" cy="557.503" rx="38.3532" ry="17.5026"/>
    <ellipse style="fill: none; fill-opacity:0; stroke-width: 2; stroke: #000000" cx="1558.35" cy="557.503" rx="38.3532" ry="17.5026"/>
    <text font-size="12.8" style="fill: #000000;text-anchor:middle;font-family:sans-serif;font-style:normal;font-weight:normal" x="1558.35" y="561.403">
      <tspan x="1558.35" y="561.403">rm</tspan>
    </text>
  </g>
  <g>
    <line style="fill: none; fill-opacity:0; stroke-width: 2; stroke: #000000" x1="1397.88" y1="330.851" x2="1303.77" y2="279.288"/>
    <polygon style="fill: #000000" points="1395.47,335.235 1411.91,338.539 1400.28,326.466 "/>
    <polygon style="fill: none; fill-opacity:0; stroke-width: 2; stroke: #000000" points="1395.47,335.235 1411.91,338.539 1400.28,326.466 "/>
    <text font-size="12.7998" style="fill: #000000;text-anchor:middle;font-family:sans-serif;font-style:normal;font-weight:normal" x="1380" y="320">? (getPermission)</text>
  </g>
  <g>
    <line style="fill: none; fill-opacity:0; stroke-width: 2; stroke: #000000" x1="1395.77" y1="425.761" x2="1433.25" y2="378.971"/>
    <polygon style="fill: #000000" points="1391.87,422.635 1385.77,438.249 1399.68,428.887 "/>
    <polygon style="fill: none; fill-opacity:0; stroke-width: 2; stroke: #000000" points="1391.87,422.635 1385.77,438.249 1399.68,428.887 "/>
  </g>
  <g>
    <line style="fill: none; fill-opacity:0; stroke-width: 2; stroke: #000000" x1="1362.24" y1="522.111" x2="1366.96" y2="478.992"/>
    <polygon style="fill: #000000" points="1357.27,521.567 1360.5,538.016 1367.21,522.656 "/>
    <polygon style="fill: none; fill-opacity:0; stroke-width: 2; stroke: #000000" points="1357.27,521.567 1360.5,538.016 1367.21,522.656 "/>
    <text font-size="12.7998" style="fill: #000000;text-anchor:middle;font-family:sans-serif;font-style:normal;font-weight:normal" x="1363.68" y="519.002">(getpretend)</text>
  </g>
  <g>
    <line style="fill: none; fill-opacity:0; stroke-width: 2; stroke: #000000" x1="1520.06" y1="427.233" x2="1469.97" y2="378.971"/>
    <polygon style="fill: #000000" points="1516.59,430.834 1531.58,438.335 1523.53,423.633 "/>
    <polygon style="fill: none; fill-opacity:0; stroke-width: 2; stroke: #000000" points="1516.59,430.834 1531.58,438.335 1523.53,423.633 "/>
  </g>
  <g>
    <line style="fill: none; fill-opacity:0; stroke-width: 2; stroke: #000000" x1="1556.43" y1="522.028" x2="1554.07" y2="478.239"/>
    <polygon style="fill: #000000" points="1551.44,522.298 1557.3,538.005 1561.43,521.758 "/>
    <polygon style="fill: none; fill-opacity:0; stroke-width: 2; stroke: #000000" points="1551.44,522.298 1557.3,538.005 1561.43,521.758 "/>
    <text font-size="12.7998" style="fill: #000000;text-anchor:middle;font-family:sans-serif;font-style:normal;font-weight:normal" x="1530.34" y="539.566">(getPermission) (getPretend)</text>
  </g>
  <g>
    <line style="fill: none; fill-opacity:0; stroke-width: 2; stroke: #000000" x1="1449.36" y1="322.03" x2="1449.91" y2="140.943"/>
    <polygon style="fill: #000000" points="1444.36,322.015 1449.31,338.03 1454.36,322.045 "/>
    <polygon style="fill: none; fill-opacity:0; stroke-width: 2; stroke: #000000" points="1444.36,322.015 1449.31,338.03 1454.36,322.045 "/>
    <text font-size="12.7998" style="fill: #000000;text-anchor:middle;font-family:sans-serif;font-style:normal;font-weight:normal" x="1460" y="254">?</text>
  </g>
  <g>
    <polygon style="fill: #ffffff" points="1699.26,220 1898.51,269.814 1699.26,319.628 1500,269.814 "/>
    <polygon style="fill: none; fill-opacity:0; stroke-width: 2; stroke: #000000" points="1699.26,220 1898.51,269.814 1699.26,319.628 1500,269.814 "/>
    <text font-size="12.8" style="fill: #000000;text-anchor:middle;font-family:sans-serif;font-style:normal;font-weight:normal" x="1699.26" y="273.714">
      <tspan x="1699.26" y="273.714">hostMissingDialog / rmvblMissingDialog</tspan>
    </text>
  </g>
  <g>
    <rect style="fill: #ffffff" x="1660" y="380" width="120" height="38"/>
    <rect style="fill: none; fill-opacity:0; stroke-width: 2; stroke: #000000" x="1660" y="380" width="120" height="38"/>
    <text font-size="12.8" style="fill: #000000;text-anchor:middle;font-family:sans-serif;font-style:normal;font-weight:normal" x="1720" y="402.9">
      <tspan x="1720" y="402.9">deleteItem</tspan>
    </text>
  </g>
  <g>
    <rect style="fill: #ffffff" x="1840" y="380" width="192.95" height="38"/>
    <rect style="fill: none; fill-opacity:0; stroke-width: 2; stroke: #000000" x="1840" y="380" width="192.95" height="38"/>
    <text font-size="12.8" style="fill: #000000;text-anchor:middle;font-family:sans-serif;font-style:normal;font-weight:normal" x="1936.48" y="402.9">
      <tspan x="1936.48" y="402.9">deleteLocationFromListList</tspan>
    </text>
  </g>
  <g>
    <polygon style="fill: #ffffff" points="2021.31,180 2202.61,225.326 2021.31,270.653 1840,225.326 "/>
    <polygon style="fill: none; fill-opacity:0; stroke-width: 2; stroke: #000000" points="2021.31,180 2202.61,225.326 2021.31,270.653 1840,225.326 "/>
    <text font-size="12.8" style="fill: #000000;text-anchor:middle;font-family:sans-serif;font-style:normal;font-weight:normal" x="2021.31" y="229.226">
      <tspan x="2021.31" y="229.226">deleteLocationFromLocsListDialog</tspan>
    </text>
  </g>
  <g>
    <line style="fill: none; fill-opacity:0; stroke-width: 2; stroke: #000000" x1="1627.96" y1="224.099" x2="1498.35" y2="140.999"/>
    <polygon style="fill: #000000" points="1625.26,228.308 1641.42,232.735 1630.65,219.89 "/>
    <polygon style="fill: none; fill-opacity:0; stroke-width: 2; stroke: #000000" points="1625.26,228.308 1641.42,232.735 1630.65,219.89 "/>
    <text font-size="12.7998" style="fill: #000000;text-anchor:middle;font-family:sans-serif;font-style:normal;font-weight:normal" x="1597" y="203">?</text>
  </g>
  <g>
    <line style="fill: none; fill-opacity:0; stroke-width: 2; stroke: #000000" x1="1902.11" y1="201.264" x2="1603.6" y2="141.007"/>
    <polygon style="fill: #000000" points="1901.12,206.166 1917.79,204.43 1903.1,196.363 "/>
    <polygon style="fill: none; fill-opacity:0; stroke-width: 2; stroke: #000000" points="1901.12,206.166 1917.79,204.43 1903.1,196.363 "/>
    <text font-size="12.7998" style="fill: #000000;text-anchor:middle;font-family:sans-serif;font-style:normal;font-weight:normal" x="1804" y="177">?</text>
  </g>
  <g>
    <line style="fill: none; fill-opacity:0; stroke-width: 2; stroke: #000000" x1="1953.63" y1="363.881" x2="2001.15" y2="266.582"/>
    <polygon style="fill: #000000" points="1949.14,361.687 1946.61,378.258 1958.12,366.076 "/>
    <polygon style="fill: none; fill-opacity:0; stroke-width: 2; stroke: #000000" points="1949.14,361.687 1946.61,378.258 1958.12,366.076 "/>
    <text font-size="12.7998" style="fill: #000000;text-anchor:middle;font-family:sans-serif;font-style:normal;font-weight:normal" x="1958.58" y="324.722">?</text>
  </g>
  <g>
    <line style="fill: none; fill-opacity:0; stroke-width: 2; stroke: #000000" x1="1884.81" y1="370.866" x2="1763.21" y2="304.641"/>
    <polygon style="fill: #000000" points="1882.42,375.257 1898.86,378.518 1887.2,366.474 "/>
    <polygon style="fill: none; fill-opacity:0; stroke-width: 2; stroke: #000000" points="1882.42,375.257 1898.86,378.518 1887.2,366.474 "/>
    <text font-size="12.7998" style="fill: #000000;text-anchor:middle;font-family:sans-serif;font-style:normal;font-weight:normal" x="1831.48" y="351.818">?</text>
  </g>
  <g>
    <line style="fill: none; fill-opacity:0; stroke-width: 2; stroke: #000000" x1="1714.09" y1="362.211" x2="1707.1" y2="318.653"/>
    <polygon style="fill: #000000" points="1709.16,363.004 1716.63,378.009 1719.03,361.418 "/>
    <polygon style="fill: none; fill-opacity:0; stroke-width: 2; stroke: #000000" points="1709.16,363.004 1716.63,378.009 1719.03,361.418 "/>
    <text font-size="12.7998" style="fill: #000000;text-anchor:middle;font-family:sans-serif;font-style:normal;font-weight:normal" x="1724.08" y="364.252">?</text>
  </g>
  <g>
    <line style="fill: none; fill-opacity:0; stroke-width: 2; stroke: #000000" x1="1515.51" y1="335.363" x2="1615.5" y2="299.693"/>
    <polygon style="fill: #000000" points="1513.83,330.653 1500.44,340.739 1517.19,340.072 "/>
    <polygon style="fill: none; fill-opacity:0; stroke-width: 2; stroke: #000000" points="1513.83,330.653 1500.44,340.739 1517.19,340.072 "/>
    <text font-size="12.7998" style="fill: #000000;text-anchor:middle;font-family:sans-serif;font-style:normal;font-weight:normal" x="1580" y="320">? (getPermission)</text>
  </g>
  <g>
    <ellipse style="fill: #ffffff" cx="1987.36" cy="496.84" rx="67.3601" ry="16.84"/>
    <ellipse style="fill: none; fill-opacity:0; stroke-width: 2; stroke: #000000" cx="1987.36" cy="496.84" rx="67.3601" ry="16.84"/>
    <text font-size="12.8" style="fill: #000000;text-anchor:middle;font-family:sans-serif;font-style:normal;font-weight:normal" x="1987.36" y="500.74">
      <tspan x="1987.36" y="500.74">sed -i</tspan>
    </text>
  </g>
  <g>
    <ellipse style="fill: #ffffff" cx="1745.18" cy="476.296" rx="65.1826" ry="16.2956"/>
    <ellipse style="fill: none; fill-opacity:0; stroke-width: 2; stroke: #000000" cx="1745.18" cy="476.296" rx="65.1826" ry="16.2956"/>
    <text font-size="12.8" style="fill: #000000;text-anchor:middle;font-family:sans-serif;font-style:normal;font-weight:normal" x="1745.18" y="480.196">
      <tspan x="1745.18" y="480.196">rm</tspan>
    </text>
  </g>
  <g>
    <line style="fill: none; fill-opacity:0; stroke-width: 2; stroke: #000000" x1="1734.36" y1="443.072" x2="1726.5" y2="418.966"/>
    <polygon style="fill: #000000" points="1729.6,444.621 1739.31,458.285 1739.11,441.524 "/>
    <polygon style="fill: none; fill-opacity:0; stroke-width: 2; stroke: #000000" points="1729.6,444.621 1739.31,458.285 1739.11,441.524 "/>
    <text font-size="12.7998" style="fill: #000000;text-anchor:middle;font-family:sans-serif;font-style:normal;font-weight:normal" x="1733.06" y="449.1">(getPermission) (getPretend)</text>
  </g>
  <g>
    <line style="fill: none; fill-opacity:0; stroke-width: 2; stroke: #000000" x1="1970.37" y1="464.171" x2="1946.87" y2="418.993"/>
    <polygon style="fill: #000000" points="1965.93,466.478 1977.75,478.366 1974.81,461.864 "/>
    <polygon style="fill: none; fill-opacity:0; stroke-width: 2; stroke: #000000" points="1965.93,466.478 1977.75,478.366 1974.81,461.864 "/>
    <text font-size="12.7998" style="fill: #000000;text-anchor:middle;font-family:sans-serif;font-style:normal;font-weight:normal" x="1962.54" y="459.124">(getPermission) (getPretend)</text>
  </g>
  <text font-size="12.8" style="fill: #000000;text-anchor:start;font-family:sans-serif;font-style:normal;font-weight:normal" x="772.6" y="737">
    <tspan x="772.6" y="737"></tspan>
  </text>
  <g>
    <polygon style="fill: #ffff86" points="-227.934,-200 1100,-200 1027.93,-2 -300,-2 "/>
    <polygon style="fill: none; fill-opacity:0; stroke-width: 2; stroke: #000000" points="-227.934,-200 1100,-200 1027.93,-2 -300,-2 "/>
    <text font-size="12.8" style="fill: #000000;text-anchor:start;font-family:sans-serif;font-style:normal;font-weight:normal" x="-220.938" y="-177.1">
      <tspan x="-220.938" y="-177.1">Diagram of which functions call which other functions</tspan>
      <tspan x="-220.938" y="-161.1">It illustrates how disk writes happen, and where the getPretend and getPermission checks happen.</tspan>
      <tspan x="-220.938" y="-145.1"></tspan>
      <tspan x="-220.938" y="-129.1">The program's "main" routine is at the top.</tspan>
      <tspan x="-220.938" y="-113.1">The program's key Functions are shown below.</tspan>
      <tspan x="-220.938" y="-97.1">Functions that are user dialogs are shown in diamonds.</tspan>
      <tspan x="-220.938" y="-81.1">Functions that commit disk operations (which are shell builtins) are shown in ovals.</tspan>
      <tspan x="-220.938" y="-65.1">Function calls are shown with arrows.</tspan>
      <tspan x="-220.938" y="-49.1">Function calls conditional on something are labelled with a "?".</tspan>
      <tspan x="-220.938" y="-33.1">Function calls dependent on not being in pretend mode are labelled with "(getPretend)".</tspan>
      <tspan x="-220.938" y="-17.1">Function calls dependent, in interactive mode, on user approval, are labelled with "(getPermission)".</tspan>
    </text>
  </g>
  <g>
    <polygon style="fill: #ffff86" points="1112.79,-200 2204.34,-200 2131.54,0 1040,0 "/>
    <polygon style="fill: none; fill-opacity:0; stroke-width: 2; stroke: #000000" points="1112.79,-200 2204.34,-200 2131.54,0 1040,0 "/>
    <text font-size="12.8" style="fill: #000000;text-anchor:start;font-family:sans-serif;font-style:normal;font-weight:normal" x="1099.04" y="-120.1">
      <tspan x="1099.04" y="-120.1">Omissions:</tspan>
      <tspan x="1099.04" y="-104.1">Diagram omits disk writes to the log file, i.e. calls to "echoToLog".</tspan>
      <tspan x="1099.04" y="-88.1">Diagram omits calls to pure functions: "readableDate", "modTimeOf", "cleanCommentsAndWhitespace"</tspan>
      <tspan x="1099.04" y="-72.1">Diagram also omits calls to functions unrelated to disk writes: "appendLineToSummary", "echoTitle", "noRsync", "readOptions", "getVerbose", "showHelp", "usage"</tspan>
    </text>
  </g>
</svg>
